<?xml version="1.0" standalone="no"?>
<!DOCTYPE svg PUBLIC "-//W3C//DTD SVG 20010904//EN"
 "http://www.w3.org/TR/2001/REC-SVG-20010904/DTD/svg10.dtd">
<svg version="1.0" xmlns="http://www.w3.org/2000/svg"
 width="260.000000pt" height="260.000000pt" viewBox="0 0 260.000000 260.000000"
 preserveAspectRatio="xMidYMid meet">
<metadata>
Created by potrace 1.14, written by Peter Selinger 2001-2017
</metadata>
<g transform="translate(0.000000,260.000000) scale(0.100000,-0.100000)"
fill="#000000" stroke="none">
<path d="M0 1301 l0 -1300 21 4 c12 3 30 12 40 22 9 10 29 29 43 42 14 12 23
27 20 32 -3 5 2 9 11 9 10 0 13 5 9 12 -5 7 -2 9 8 5 10 -3 15 0 14 11 0 10 6
16 16 16 10 -1 14 4 11 12 -3 8 1 14 9 14 7 0 21 8 30 18 9 9 24 23 33 30 11
10 13 17 6 26 -11 13 4 36 23 36 5 0 1 -7 -10 -16 -18 -14 -18 -14 6 -3 40 19
70 56 35 43 -10 -4 -15 0 -15 12 0 11 4 15 8 9 10 -15 49 -13 49 1 0 7 -5 10
-11 7 -6 -4 -5 1 3 10 7 9 23 17 35 17 17 0 18 2 6 10 -12 8 -11 10 8 10 12 0
22 5 22 11 0 5 4 8 9 5 9 -6 34 42 26 53 -2 5 7 7 20 5 14 -1 23 2 19 7 -3 5
2 12 11 15 14 6 14 9 3 16 -9 7 -7 8 9 5 27 -6 28 -4 7 18 -14 14 -15 18 -3
28 8 7 10 8 6 3 -4 -5 -2 -15 5 -23 9 -11 14 -11 29 3 11 10 19 23 19 31 0 8
5 11 10 8 6 -3 10 1 10 10 0 9 -5 13 -10 10 -13 -8 -13 5 0 25 8 13 10 12 10
-2 0 -17 19 -26 21 -10 0 4 2 17 3 29 2 13 6 26 10 30 3 4 5 -2 4 -13 -2 -10
2 -20 7 -21 6 -2 10 6 10 17 0 10 5 23 9 27 5 4 6 2 2 -4 -4 -7 -4 -13 1 -13
12 1 59 39 48 40 -5 0 1 7 15 16 l25 14 -24 -2 c-13 -2 -25 3 -27 10 -1 7 0 9
2 4 2 -5 18 -6 35 -4 24 3 30 9 26 22 -3 14 0 17 13 15 19 -4 34 20 24 36 -3
5 2 9 12 9 14 0 15 3 3 18 -11 14 -11 15 1 4 8 -6 17 -12 21 -12 11 0 20 33
10 39 -5 3 3 15 18 26 20 15 23 15 12 2 -21 -27 5 -20 34 8 14 14 25 29 25 32
0 9 50 53 58 50 12 -3 56 42 49 50 -4 3 -7 1 -7 -5 0 -7 -5 -12 -11 -12 -20 0
11 29 34 32 16 2 22 10 21 26 -1 12 1 21 4 18 11 -12 41 15 35 31 -4 11 -3 14
5 9 7 -4 12 -2 12 5 0 7 3 10 6 6 8 -8 63 46 57 56 -4 6 12 11 29 8 10 -1 5
29 -6 49 -7 12 -6 13 5 3 7 -7 17 -13 22 -13 4 0 5 6 1 13 -6 9 -4 9 8 -1 13
-10 16 -9 21 8 3 11 1 23 -4 26 -5 3 -7 10 -3 15 4 6 11 6 20 -2 11 -9 14 -9
14 0 0 7 5 9 13 5 8 -6 8 -3 -1 9 -12 14 -11 16 8 12 16 -3 25 4 37 30 11 22
21 32 32 28 13 -4 13 -2 -1 10 -10 8 -15 17 -11 20 10 11 25 8 18 -3 -12 -19
22 -10 41 12 l19 21 -35 -6 c-34 -6 -34 -6 -10 7 14 8 28 12 31 10 4 -2 12 3
19 12 11 12 15 12 21 2 6 -10 9 -8 9 6 0 10 17 34 37 52 20 19 32 34 27 34 -6
0 -15 -5 -21 -11 -6 -6 -13 -7 -16 -2 -2 4 9 18 24 31 18 14 27 18 23 9 -3 -8
0 -18 7 -23 7 -4 10 -3 6 3 -7 12 16 36 26 27 3 -3 8 4 12 16 9 28 43 62 55
55 5 -3 12 0 16 6 5 8 3 9 -6 4 -8 -5 -11 -3 -9 4 3 7 7 11 11 9 9 -5 48 34
43 43 -3 4 0 11 6 14 5 4 8 14 4 22 -4 13 -3 14 10 3 14 -11 13 -14 -2 -26
-10 -7 -13 -14 -7 -14 22 0 34 22 22 44 -10 18 -9 19 3 9 14 -12 44 -3 37 11
-1 4 8 14 22 21 14 8 21 14 16 15 -6 0 -1 7 10 15 14 11 16 15 4 15 -12 0 -11
3 3 11 9 5 21 8 26 4 5 -3 20 12 33 34 13 21 26 39 31 40 16 3 42 37 39 52 -1
9 3 21 11 27 11 9 14 8 14 -3 0 -8 -4 -12 -9 -9 -4 3 -8 1 -8 -5 0 -5 5 -13
10 -16 6 -3 10 -2 10 4 0 6 11 21 24 34 14 14 22 28 19 31 -4 3 -1 6 6 6 8 0
11 7 7 15 -4 10 1 15 15 15 13 0 19 6 17 18 -2 11 3 17 15 15 12 0 16 4 13 13
-3 8 -1 14 4 14 6 0 10 -6 11 -12 0 -7 5 -3 11 10 6 13 17 21 24 18 8 -3 11 6
10 27 -3 32 18 65 29 48 3 -6 -2 -14 -11 -19 -11 -6 -13 -11 -5 -16 6 -4 11
-2 11 4 0 6 5 8 10 5 6 -4 9 -1 8 6 -2 7 2 13 7 14 24 1 109 107 97 121 -4 5
2 2 12 -6 11 -8 18 -10 15 -5 -3 6 8 22 23 37 15 15 28 24 28 22 0 -14 69 69
73 89 5 18 4 20 -6 7 -7 -8 -19 -16 -27 -18 -8 -1 -4 6 10 17 19 15 28 17 39
8 12 -10 12 -9 2 12 -11 19 -11 22 1 15 22 -14 36 -13 50 4 8 10 9 13 1 9 -6
-4 -15 -3 -18 3 -4 6 -3 10 2 9 4 -1 15 -1 23 0 13 1 13 2 0 11 -9 6 -495 10
-1297 10 l-1283 0 0 -1299z m2454 1183 c3 -8 2 -12 -4 -9 -6 3 -10 10 -10 16
0 14 7 11 14 -7z m-34 -34 c-11 -11 -20 -24 -20 -30 0 -5 -5 -10 -11 -10 -8 0
-8 5 1 15 7 8 9 15 4 15 -10 0 28 29 39 30 4 0 -2 -9 -13 -20z m-100 -104 c0
-2 -8 -10 -17 -17 -16 -13 -17 -12 -4 4 13 16 21 21 21 13z m-25 -46 c4 -6 -1
-7 -11 -3 -12 4 -15 3 -10 -5 5 -8 2 -10 -9 -5 -13 5 -14 7 -3 14 17 11 26 11
33 -1z m-98 -86 c-3 -3 -12 -4 -19 -1 -8 3 -5 6 6 6 11 1 17 -2 13 -5z m-135
-126 c-7 -7 -12 -8 -12 -2 0 6 3 14 7 17 3 4 9 5 12 2 2 -3 -1 -11 -7 -17z
m-77 -98 c-3 -5 -11 -10 -16 -10 -6 0 -7 5 -4 10 3 6 11 10 16 10 6 0 7 -4 4
-10z m-67 -80 c-7 -10 -14 -17 -17 -15 -4 4 18 35 25 35 2 0 -1 -9 -8 -20z
m-81 -65 c-4 -8 -12 -15 -19 -15 -9 0 -8 3 2 10 8 5 11 10 7 10 -5 0 -5 5 -2
11 10 15 19 3 12 -16z m-40 -30 c0 -8 -4 -12 -9 -9 -5 3 -6 10 -3 15 9 13 12
11 12 -6z m-797 -805 c0 -5 -5 -10 -11 -10 -5 0 -7 5 -4 10 3 6 8 10 11 10 2
0 4 -4 4 -10z m-60 -64 c0 -3 -4 -8 -10 -11 -5 -3 -10 -1 -10 4 0 6 5 11 10
11 6 0 10 -2 10 -4z m-183 -192 c-3 -3 -12 -4 -19 -1 -8 3 -5 6 6 6 11 1 17
-2 13 -5z m-42 -63 c-3 -3 -10 1 -15 9 -7 10 -10 11 -10 3 0 -7 -5 -13 -11
-13 -8 0 -8 5 1 15 10 12 16 13 27 4 7 -7 11 -14 8 -18z m-135 -135 c0 -2 -8
-10 -17 -17 -16 -13 -17 -12 -4 4 13 16 21 21 21 13z m-80 -65 c0 -6 -4 -13
-10 -16 -5 -3 -10 1 -10 9 0 9 5 16 10 16 6 0 10 -4 10 -9z m-246 -247 c3 -8
2 -12 -4 -9 -6 3 -10 10 -10 16 0 14 7 11 14 -7z m-38 -34 c0 -11 -4 -20 -8
-20 -10 0 -11 24 -1 33 9 9 9 10 9 -13z m-76 -70 c-8 -5 -19 -10 -25 -10 -5 0
-3 5 5 10 8 5 20 10 25 10 6 0 3 -5 -5 -10z m-48 -70 c-14 -13 -22 -16 -22 -8
0 9 -3 9 -10 -2 -5 -8 -11 -12 -14 -9 -3 3 6 17 21 33 18 20 28 25 36 17 8 -8
5 -17 -11 -31z m-52 -34 c0 -3 -4 -8 -10 -11 -5 -3 -10 -1 -10 4 0 6 5 11 10
11 6 0 10 -2 10 -4z"/>
</g>
</svg>
